<?xml version="1.0" encoding="utf-8"?>
<!-- Generator: Adobe Illustrator 24.1.0, SVG Export Plug-In . SVG Version: 6.00 Build 0)  -->
<svg version="1.1" id="Ebene_1" xmlns="http://www.w3.org/2000/svg" xmlns:xlink="http://www.w3.org/1999/xlink" x="0px" y="0px"
	 viewBox="0 0 237.2 246.1" style="enable-background:new 0 0 237.2 246.1;" xml:space="preserve">
<style type="text/css">
	.st0{fill:#244999;}
	.st1{fill:#CB9C2A;}
	.st2{fill:#C6C6C5;}
	.st3{fill:#244A9A;}
	.st4{fill:#FFFFFF;}
	.st5{fill:none;stroke:#FFFFFF;stroke-width:4;stroke-linecap:round;stroke-linejoin:round;stroke-miterlimit:10;}
</style>
<g>
	<path class="st0" d="M40,205.7H22.9c-8.1,0-12.1-1.1-15.9-4.4c-4.6-4-7-11-7-20.1c0-10.9,3.8-18.9,10.4-22.3c3-1.5,7.9-2.4,13-2.4
		h16.7v8.8H24.6c-4.8,0-8.1,1.2-10.4,3.8c-1.7,2-2.7,5.9-2.7,11.2c0,7,1.5,12.1,4.2,14.4c2,1.6,5,2.4,9.2,2.4H40V205.7z"/>
	<path class="st0" d="M57.5,156.3V184c0.3,8.2,0.4,8.7,2.4,10.7c2,1.7,4.4,2.1,10.8,2.1h10.1v8.8H69.6c-9.7,0.1-13-0.7-17.2-3.9
		c-4.4-3.9-5.4-7.4-5.5-17.8v-27.7L57.5,156.3L57.5,156.3z"/>
	<path class="st0" d="M126.8,163.1c3.3,4,5.1,10.7,5.1,18.6c0,8.4-2.6,15.4-7.3,19.4c-3.7,3.1-9.5,4.9-16.4,4.9
		c-9.3,0-16.7-3-20.5-8.2c-3-4.1-4.6-9.7-4.6-16.5c0-9.2,2.4-16.3,7-20.1c3.8-3.3,10.1-5.2,17.3-5.2
		C116.1,155.9,123.1,158.5,126.8,163.1z M97.2,169c-1.6,2.4-2.4,6.4-2.4,11.8c0,11.5,4,16.8,12.9,16.8c8.7,0,12.7-5.3,12.7-16.7
		c0-11.5-3.9-16.7-12.7-16.7C103,164.3,99.3,166,97.2,169z"/>
	<path class="st0" d="M149.4,185.9c0,4.7,0.7,7,2.6,8.8c1.9,1.9,5.3,3,8.7,3c4.7,0,8.4-1.7,9.8-4.4c0.7-1.5,1-3.6,1-7.4v-29.6H182
		v29.1c0,7.6-1.6,12.4-5,15.5c-4,3.5-9.3,5.1-16.6,5.1c-7.6,0-13.1-1.6-16.7-5c-3.7-3.5-4.9-7.1-4.9-14.9v-29.8h10.5L149.4,185.9
		L149.4,185.9z"/>
	<path class="st0" d="M212.4,156.3c9.9,0,15.5,1.8,19.5,6.4c3.2,3.6,5.3,10.8,5.3,18.4c0,4.1-0.7,8.9-1.9,12.6
		c-1.9,5.9-5.4,9.5-11.2,11c-2.6,0.7-5.3,1-11.6,1h-20.9v-49.4H212.4L212.4,156.3z M202,196.9h10.4c4.4,0,7.8-1.1,9.5-3
		c2.2-2.5,3.6-7.5,3.6-12.8c0-5.8-1.7-11.1-4.3-13.4c-2.1-1.8-4.5-2.5-8.9-2.5h-10.4L202,196.9L202,196.9z"/>
	<path class="st1" d="M85.7,245.7h-4.3V219h11.8c3.7,0,5.4,0.5,7.1,2c1.6,1.5,2.4,3.6,2.4,6.4c0,2.9-1,5.4-2.8,6.9
		c-1.4,1.2-3.6,1.7-7.5,1.7h-6.7V245.7z M92.7,232.6c2.1,0,3.3-0.4,4.2-1.2c0.8-0.8,1.3-2.4,1.3-4.1c0-1.6-0.5-2.9-1.3-3.8
		c-0.8-0.8-2-1.1-4.3-1.1h-6.8v10.2H92.7z"/>
	<path class="st1" d="M110.3,245.7H106V219h12.2c3.7,0,5.9,0.4,7.4,1.4c1.9,1.2,3,3.5,3,6c0,2.2-0.8,4.2-2.2,5.4
		c-0.9,0.8-1.7,1.2-3.3,1.6c3.6,1.6,4.6,3.3,4.9,8.2c0.2,3.2,0.2,3.2,0.7,4h-4.4c-0.1-0.3-0.2-0.5-0.3-1c0-0.2-0.1-0.7-0.2-1.5
		l-0.1-1.4c-0.6-5.6-2.7-7.4-9.1-7.4h-4.2L110.3,245.7L110.3,245.7z M117.9,231c2.4,0,3.8-0.2,4.5-0.8c1-0.8,1.6-2,1.6-3.5
		c0-1.7-0.6-3-1.7-3.7c-0.7-0.4-1.8-0.6-4.4-0.6h-7.6v8.6H117.9z"/>
	<path class="st1" d="M157.2,232.4c0,4.9-1.2,8.4-3.6,10.6c-2.3,2-5.6,3.1-9.5,3.1c-4.4,0-7.9-1.4-10-3.9c-1.7-2.1-2.8-5.9-2.8-9.8
		c0-4,1.1-7.7,3-9.8c2.2-2.6,5.7-4,10.2-4C153.1,218.6,157.2,223,157.2,232.4z M135.8,232.3c0,7.2,2.6,10.4,8.5,10.4
		c3.7,0,6.2-1.3,7.4-3.9c0.6-1.3,1-3.8,1-6.3c0-3.1-0.6-5.9-1.4-7.4c-1.3-2.1-3.6-3.2-6.8-3.2C138.5,222,135.8,225.2,135.8,232.3z"
		/>
</g>
<g>
	<path class="st2" d="M198.3,15l-5.8,12.1c15,5.6,25.7,20.1,25.7,37c0,21.8-17.7,39.5-39.5,39.5c-4.8,0-9.4-0.9-13.6-2.4
		c-0.6-0.2-1.2-0.5-1.8-0.7c-0.3-0.1-0.6-0.2-0.9-0.4c-0.6-0.3-1.1-0.5-1.7-0.8c-0.3-0.1-0.6-0.3-0.9-0.5c-0.5-0.3-1.1-0.6-1.6-0.9
		c-0.3-0.2-0.6-0.4-0.8-0.5c-0.4-0.2-0.8-0.5-1.1-0.8c-0.2-0.1-0.4-0.2-0.5-0.4l0,0c0,0,0,0-0.1,0c-0.6,0.9-1.3,1.8-1.9,2.6
		c-2.6,3.2-5.4,6.2-6.8,7.6l0,0c-15.7,15.3-37.8,22.3-59.4,16.7c-2.2-0.6-4.4-1.3-6.6-2.1c5.8,5.2,12.7,9.1,20.5,11.1
		c20.1,5.3,41.1-3,55.7-19.6c6.6,2.9,13.9,4.6,21.5,4.6c29.2,0,52.9-23.7,52.9-52.9C231.7,41.8,217.8,22.7,198.3,15"/>
	<polygon class="st3" points="155.7,74.9 155.7,74.9 155.6,74.8 	"/>
	<path class="st3" d="M120.4,41.9L120.4,41.9L120.4,41.9z"/>
	<path class="st3" d="M161.5,45c4.7-2.7,9.3-6.3,13.7-11c9.8-10.4,15.4-22.7,16.4-34c-11.1,1.8-23.1,8.2-32.8,18.6
		c-4.4,4.7-7.7,9.5-10.1,14.4l-21-0.1l-8.4,8.9l18.3,2.2c0,0,0.9,3.9-4.8,8.9l9.7,9.1c4.6-6,8.5-5.4,8.5-5.4l3.4,18.1l8.4-8.9
		L161.5,45z"/>
	<path class="st3" d="M125.1,62c-1.4,1.5-17,18.8-22.7,23.9c-9.9,8.9-21.9,16-25.9,17.7c-4.5,1.8-9.4,3.1-14.6,3.6
		c-1.1,0.1-2,0.2-2.6,0.2c-8.4,0.3-16.3-2.3-22.9-6.8c-0.1,0-0.1-0.1-0.2-0.1c-0.4-0.3-0.7-0.5-1.1-0.8c-5.6-4.1-10-9.6-12.8-16
		c-0.1-0.2-0.2-0.3-0.2-0.5c0,0,0-0.1-0.1-0.1c-2-4.7-3.2-9.9-3.2-15.3c0-12.8,6.1-24.2,15.6-31.4c6.7-5.1,15-8.2,24-8.2
		c9.1,0,17.4,3.1,24.1,8.2c0.1-0.1,0.1-0.2,0.2-0.3c17-23.8,45.9-34.8,71.3-24.9c-5.3-4.3-11.4-7.5-18.2-9.2
		c-19.5-5.1-39.9,2.5-54.4,18.1c-6.9-3.4-14.7-5.2-22.9-5.3c-29.2,0-53,23.6-53,52.9c0,29,23.2,52.5,52.1,53
		c17.8,0.4,33.7-8.9,44.4-16.9c10.6-7.9,29.6-29,32.9-32.6c-4.3,1.6-8.2,2.5-11.6,2.8C123,70.8,123.7,66.7,125.1,62"/>
	<g>
		<g transform="translate(0,-952.36218)">
			<g>
				<path class="st1" d="M200,1088.9c-18.5-8.2-30.5-26.5-30.5-46.7v-12.4l31.1-15l31.1,15v12.4c0,20.2-12,38.5-30.5,46.7l-0.6,0.3
					L200,1088.9z"/>
				<path class="st4" d="M200.6,1016.6l29.6,14.3v11.4c0,20.3-12.1,37.6-29.6,45.3c-17.5-7.7-29.6-25.1-29.6-45.3v-11.4
					L200.6,1016.6 M200.6,1013.2l-1.3,0.6l-29.6,14.3l-1.7,0.8v1.9v11.4c0,20.8,12.3,39.7,31.4,48.1l1.2,0.5l1.2-0.5
					c19.1-8.4,31.4-27.3,31.4-48.1v-11.4v-1.9l-1.7-0.8l-29.6-14.3L200.6,1013.2L200.6,1013.2z"/>
			</g>
		</g>
		<polyline class="st5" points="185.6,99.7 196.9,110.6 218,91.1 		"/>
	</g>
</g>
</svg>
