<?xml version="1.0" encoding="utf-8"?>
<!-- Generator: Adobe Illustrator 24.2.1, SVG Export Plug-In . SVG Version: 6.00 Build 0)  -->
<svg version="1.1" id="Ebene_1" xmlns="http://www.w3.org/2000/svg" xmlns:xlink="http://www.w3.org/1999/xlink" x="0px" y="0px"
	 viewBox="0 0 229.9 245.4" style="enable-background:new 0 0 229.9 245.4;" xml:space="preserve">
<style type="text/css">
	.st0{fill:#C6C6C6;}
	.st1{fill:#244A9A;}
	.st2{fill:#C7C6C6;}
	.st3{fill:#FFFFFF;}
</style>
<g>
	<path class="st0" d="M165.1,102.8c-1.8-0.4-3.6-0.9-5.4-1.5c-0.6-0.2-1.2-0.5-1.8-0.7c-0.3-0.1-0.6-0.2-0.8-0.4
		c-0.6-0.3-1.1-0.5-1.7-0.8c-0.3-0.2-0.6-0.3-0.9-0.5c-0.5-0.3-1.1-0.6-1.6-0.9c-0.3-0.2-0.6-0.4-0.8-0.5c-0.4-0.2-0.8-0.5-1.1-0.8
		c-0.2-0.1-0.3-0.2-0.5-0.3c0,0,0,0-0.1,0c-0.6,0.9-1.3,1.8-1.9,2.6c-2.6,3.2-5.4,6.2-6.8,7.7C126,122,103.9,129,82.3,123.4
		c-2.3-0.6-4.4-1.3-6.6-2.1c5.8,5.2,12.7,9.1,20.5,11.1c20.1,5.3,41.1-3,55.7-19.7c5.4,2.4,11.2,3.9,17.3,4.4
		C166.9,112.8,165.4,108,165.1,102.8z"/>
	<path class="st0" d="M212.8,64.2c0,0.9,0,1.9-0.1,2.8c4.7,1.8,9,4.5,12.5,8c0.7-3.4,1.1-6.9,1.1-10.6c0-22.5-13.9-41.6-33.4-49.4
		l-5.8,12.2C202.1,32.8,212.8,47.3,212.8,64.2z"/>
</g>
<g id="Ebene_2_1_">
	<g>
		<path class="st1" d="M82.1,162.8c3.3,4,5.1,10.7,5.1,18.6c0,8.4-2.6,15.4-7.3,19.4c-3.7,3.1-9.5,4.9-16.4,4.9
			c-9.3,0-16.7-3-20.5-8.2c-3-4.1-4.6-9.7-4.6-16.5c0-9.2,2.4-16.3,7-20.1c3.8-3.3,10.1-5.2,17.3-5.2
			C71.4,155.6,78.4,158.2,82.1,162.8z M52.5,168.7c-1.6,2.4-2.4,6.4-2.4,11.8c0,11.5,4,16.8,12.9,16.8c8.7,0,12.7-5.3,12.7-16.7
			c0-11.5-3.9-16.7-12.7-16.7C58.3,164,54.6,165.7,52.5,168.7z"/>
		<path class="st1" d="M105,205.4H94.5V156h24.6c8.4,0,11.5,0.9,14.7,4.2c3,3.2,4.7,7.3,4.7,11.8c0,5-1.9,9.8-5.2,12.7
			c-2.9,2.6-5.7,3.4-11.5,3.4H105V205.4z M119.3,179.3c2.7,0,4.3-0.4,5.4-1.3c1.4-1.1,2.3-3.6,2.3-6.4c0-3.2-1.3-5.5-3.5-6.4
			c-0.9-0.4-2.1-0.5-4-0.5H105v14.5L119.3,179.3L119.3,179.3z"/>
		<path class="st1" d="M145.3,196.6h22.5c3.8,0,5.9-0.3,7.2-1.1c1.7-1,2.6-2.6,2.6-4.6c0-2.2-1.1-4.2-3-5.2c-1.1-0.7-3-1-5.5-1H160
			c-5.7,0-9.5-1-12.1-3c-3.1-2.6-5-6.7-5-11.1c0-6.1,3.3-11.5,8.1-13.4c2.4-0.9,5-1.2,11-1.2h24.4v8.8h-22.1c-4.6,0-6.3,0.1-7.5,0.7
			c-1.6,0.9-2.4,2.5-2.4,4.7c0,1.9,0.8,3.6,2.2,4.5c1.3,0.8,3,1.1,6.8,1.1h7.9c7.1,0,10.9,1,13.8,3.8c2.4,2.3,4,6.7,4,11.2
			c0,5.1-2.3,9.8-5.9,12.3c-2.5,1.7-5.6,2.2-13.2,2.2h-24.8v-8.7H145.3z"/>
		<path class="st0" d="M56,242h11.5c4,0,5.6-1.2,5.6-4.1c0-2-0.8-3.4-2.3-3.8c-0.7-0.2-1.8-0.3-4.1-0.3h-2.2c-3.2,0-5.2-0.4-6.6-1.3
			c-1.8-1.2-2.8-3.2-2.8-5.7c0-2.9,1.4-5.4,3.6-6.8c1.5-0.9,3.4-1.2,6.7-1.2h11v3.4h-11c-2.4,0-3.4,0.2-4.3,0.8
			c-0.9,0.6-1.5,1.8-1.5,3.3c0,2.7,1.6,3.7,5.8,3.7H67c4.5,0,6.4,0.4,7.9,1.4c1.7,1.3,2.8,3.7,2.8,6.4c0,3-1.3,5.4-3.7,6.6
			c-1.6,0.8-3.1,1-7,1H56V242z"/>
		<path class="st0" d="M79.1,222.1v-3.4h22.7v3.4h-9.2v23.3h-4.3v-23.3H79.1z"/>
		<path class="st0" d="M109.7,218.7h5.6l10.6,26.7h-4.5l-2.7-7h-12.6l-2.8,7h-4.5L109.7,218.7z M107.3,235h10l-4.9-13.1L107.3,235z"
			/>
		<path class="st0" d="M147.7,245.4h-8.3c-4.8,0-7.5-0.8-9.6-2.8c-2.3-2.2-3.6-6.1-3.6-10.4c0-4.8,1.8-9.4,4.6-11.5
			c1.8-1.4,4.4-2,8.4-2h8.5v3.4h-8.3c-3.6,0-5.2,0.5-6.4,2c-1.4,1.7-2.2,4.8-2.2,8.3c0,3.2,0.8,5.9,2.3,7.6c1.4,1.6,3,2.1,6.7,2.1
			h7.9L147.7,245.4L147.7,245.4z"/>
		<path class="st0" d="M155.5,245.4h-4.3v-26.7h4.3V245.4z M168.3,218.7h5.2L160,231.6l14.3,13.8h-5.7l-13.2-13.6L168.3,218.7z"/>
	</g>
</g>
<path class="st1" d="M150.2,74.9h0.1H150.2z"/>
<path class="st1" d="M114.9,41.9L114.9,41.9L114.9,41.9z"/>
<polygon class="st1" points="150.3,75 150.3,75 150.2,74.9 "/>
<path class="st1" d="M115,42L115,42L115,42z"/>
<path class="st1" d="M156.2,45c4.7-2.7,9.3-6.3,13.7-11c9.8-10.4,15.4-22.7,16.4-34c-11.1,1.8-23.1,8.2-32.8,18.6
	c-4.4,4.7-7.7,9.5-10.1,14.4l-21-0.1l-8.4,9l18.3,2.2c0,0,0.9,3.9-4.8,8.9l9.7,9.1c4.6-6,8.5-5.3,8.5-5.3l3.4,18.1l8.4-9L156.2,45z"
	/>
<path class="st1" d="M119.7,62c-1.4,1.5-17,18.8-22.7,23.9c-9.9,8.9-21.9,16-25.9,17.7c-4.5,1.8-9.5,3.1-14.6,3.6
	c-1.1,0.1-2,0.2-2.6,0.2c-8.4,0.3-16.3-2.3-22.9-6.8c-0.1,0-0.1-0.1-0.2-0.1c-0.4-0.3-0.7-0.5-1.1-0.8c-5.6-4.1-10-9.6-12.9-16
	c-0.1-0.2-0.2-0.3-0.2-0.5c0,0,0-0.1-0.1-0.1c-2-4.7-3.2-9.9-3.2-15.2c0-12.8,6.1-24.2,15.6-31.4c6.7-5.1,15-8.2,24-8.2
	c9.1,0,17.4,3.1,24.1,8.2c0.1-0.1,0.1-0.2,0.2-0.3c17-23.9,46-34.8,71.3-24.9c-5.3-4.3-11.4-7.5-18.3-9.2
	C110.7-3,90.3,4.6,75.8,20.2C69,16.8,61.2,14.9,53,14.9c-29.2,0-53,23.6-53,52.9c0,29,23.2,52.5,52.1,53
	c17.8,0.4,33.7-8.9,44.4-16.9c10.6-7.9,29.6-29,32.9-32.6c-4.3,1.6-8.2,2.5-11.6,2.8C117.7,70.9,118.3,66.7,119.7,62"/>
<circle class="st2" cx="200.4" cy="100.2" r="29.5"/>
<path class="st3" d="M180.7,95.2c-1.3-1.3-1.2-2.6,0-3.6l17.6-10.3c1.3-0.9,2.3-0.9,3.5,0l17.6,10.3c1.4,1.2,1.2,2.5,0,3.6
	l-17.6,10.3c-1,0.7-2.3,0.8-3.5,0L180.7,95.2z M202.1,110.5c-1.2,0.8-2.5,0.9-4,0L180,100.1c-0.4,0.8-0.2,1.7,0.7,2.7l17.6,10.3
	c1.3,0.8,2.5,0.7,3.5,0l17.6-10.3c0.9-0.8,1.3-1.7,0.7-2.7L202.1,110.5z M202.1,118.1c-1.2,0.8-2.5,0.9-4,0L180,107.7
	c-0.4,0.8-0.2,1.7,0.7,2.7l17.6,10.3c1.3,0.8,2.5,0.7,3.5,0l17.6-10.3c0.9-0.8,1.3-1.7,0.7-2.7L202.1,118.1z"/>
</svg>
