<?xml version="1.0" encoding="utf-8"?>
<!-- Generator: Adobe Illustrator 24.1.0, SVG Export Plug-In . SVG Version: 6.00 Build 0)  -->
<svg version="1.1" id="Ebene_1" xmlns="http://www.w3.org/2000/svg" xmlns:xlink="http://www.w3.org/1999/xlink" x="0px" y="0px"
	 viewBox="0 0 237.8 246.2" style="enable-background:new 0 0 237.8 246.2;" xml:space="preserve">
<style type="text/css">
	.st0{fill:#C6C6C6;}
	.st1{fill:#244A9A;}
	.st2{fill:#C6C6C6;stroke:#FFFFFF;stroke-width:5;stroke-miterlimit:10;}
	.st3{fill:#C6C6C6;stroke:#FFFFFF;stroke-width:4;stroke-linecap:round;stroke-linejoin:round;stroke-miterlimit:10;}
	.st4{fill:none;stroke:#FFFFFF;stroke-width:4;stroke-linecap:round;stroke-linejoin:round;stroke-miterlimit:10;}
	.st5{fill:#244999;}
</style>
<path class="st0" d="M194.2,14l-5.8,12.2c15,5.6,25.7,20.1,25.7,37c0,21.8-17.7,39.5-39.5,39.5c-4.8,0-9.4-0.9-13.6-2.4
	c-0.6-0.2-1.2-0.5-1.8-0.7c-0.3-0.1-0.6-0.2-0.9-0.4c-0.6-0.3-1.1-0.5-1.7-0.8c-0.3-0.1-0.6-0.3-0.9-0.5c-0.5-0.3-1.1-0.6-1.6-0.9
	c-0.3-0.2-0.6-0.4-0.8-0.5c-0.4-0.2-0.8-0.5-1.1-0.8c-0.2-0.1-0.4-0.2-0.5-0.4l0,0c0,0,0,0-0.1,0c-0.6,0.9-1.3,1.8-1.9,2.6
	c-2.6,3.2-5.4,6.2-6.8,7.6l0,0c-15.7,15.3-37.8,22.3-59.4,16.7c-2.2-0.6-4.4-1.3-6.6-2.1c5.8,5.2,12.7,9.1,20.5,11.1
	c20.1,5.3,41.1-3,55.7-19.6c6.6,2.9,13.9,4.6,21.5,4.6c29.2,0,52.9-23.7,52.9-52.9C227.6,40.9,213.8,21.8,194.2,14"/>
<polygon class="st1" points="151.9,75 152,75 151.9,74.9 "/>
<path class="st1" d="M116.7,42L116.7,42L116.7,42z"/>
<path class="st1" d="M157.8,45c4.7-2.7,9.3-6.3,13.7-11c9.8-10.4,15.4-22.7,16.4-34c-11.1,1.8-23.1,8.2-32.8,18.6
	c-4.4,4.7-7.7,9.5-10.1,14.4l-21-0.1l-8.4,8.9l18.3,2.2c0,0,0.9,3.9-4.8,8.9l9.7,9.1c4.6-6,8.5-5.4,8.5-5.4l3.4,18.1l8.4-8.9
	L157.8,45z"/>
<path class="st1" d="M121.4,62c-1.4,1.5-17,18.8-22.7,23.9c-9.9,8.9-21.9,16-25.9,17.7c-4.5,1.8-9.5,3.1-14.6,3.6
	c-1.1,0.1-2,0.2-2.6,0.2c-8.4,0.3-16.3-2.3-22.9-6.8c-0.1,0-0.1-0.1-0.2-0.1c-0.4-0.3-0.7-0.5-1.1-0.8c-5.6-4.1-10-9.6-12.8-16
	c-0.1-0.2-0.2-0.3-0.2-0.5c0,0,0-0.1-0.1-0.1c-2-4.7-3.2-9.9-3.2-15.2c0-12.8,6.1-24.2,15.6-31.4c6.7-5.1,15-8.2,24-8.2
	c9.1,0,17.4,3.1,24.1,8.2c0.1-0.1,0.1-0.2,0.2-0.3c17-23.8,45.9-34.8,71.3-24.9C145,7,138.9,3.8,132.1,2.1
	C112.6-3,92.2,4.6,77.7,20.2C70.8,16.8,63,15,54.8,14.9c-29.2,0-53,23.6-53,52.9c0,29,23.2,52.5,52.1,53
	c17.8,0.4,33.7-8.9,44.4-16.9c10.6-7.9,29.6-29,32.9-32.6c-4.3,1.6-8.2,2.5-11.6,2.8C119.3,70.9,120,66.7,121.4,62"/>
<circle class="st2" cx="201.3" cy="99.1" r="34"/>
<g>
	<polyline class="st3" points="214,92.6 214,111.1 188.6,111.1 188.6,92.6 	"/>
	<polyline class="st4" points="182.3,95.7 201.3,81.6 220.3,95.7 	"/>
</g>
<g>
	<path class="st5" d="M40.1,205.7H22.9c-8.1,0-12.1-1.1-15.9-4.4c-4.6-4-7-11-7-20.1c0-10.9,3.8-18.9,10.4-22.3
		c3-1.5,7.9-2.4,13-2.4h16.7v8.8H24.6c-4.8,0-8.1,1.2-10.4,3.8c-1.7,2-2.7,5.9-2.7,11.2c0,7,1.5,12.1,4.2,14.4c2,1.6,5,2.4,9.2,2.4
		H40v8.6H40.1z"/>
	<path class="st5" d="M57.5,156.4v27.7c0.3,8.2,0.4,8.7,2.4,10.7c2,1.7,4.4,2.1,10.8,2.1h10.1v8.8H69.6c-9.7,0.1-13-0.7-17.2-3.9
		c-4.4-3.9-5.4-7.4-5.5-17.8v-27.6H57.5z"/>
	<path class="st5" d="M126.9,163.2c3.3,4,5.1,10.7,5.1,18.6c0,8.4-2.6,15.4-7.3,19.4c-3.7,3.1-9.5,4.9-16.4,4.9
		c-9.3,0-16.7-3-20.5-8.2c-3-4.1-4.6-9.7-4.6-16.5c0-9.2,2.4-16.3,7-20.1c3.8-3.3,10.1-5.2,17.3-5.2
		C116.2,156,123.2,158.6,126.9,163.2z M97.3,169.1c-1.6,2.4-2.4,6.4-2.4,11.8c0,11.5,4,16.8,12.9,16.8c8.7,0,12.7-5.3,12.7-16.7
		c0-11.5-3.9-16.7-12.7-16.7C103.1,164.4,99.4,166.1,97.3,169.1z"/>
	<path class="st5" d="M149.5,186c0,4.7,0.7,7,2.6,8.8c1.9,1.9,5.3,3,8.7,3c4.7,0,8.4-1.7,9.8-4.4c0.7-1.5,1-3.6,1-7.4v-29.6h10.5
		v29.1c0,7.6-1.6,12.4-5,15.5c-4,3.5-9.3,5.1-16.6,5.1c-7.6,0-13.1-1.6-16.7-5c-3.7-3.5-4.9-7.1-4.9-14.9v-29.8h10.5L149.5,186
		L149.5,186z"/>
	<path class="st5" d="M212.4,156.4c9.9,0,15.5,1.8,19.5,6.4c3.2,3.6,5.3,10.8,5.3,18.4c0,4.1-0.7,8.9-1.9,12.6
		c-1.9,5.9-5.4,9.5-11.2,11c-2.6,0.7-5.3,1-11.6,1h-20.9v-49.4H212.4z M202,196.9h10.4c4.4,0,7.8-1.1,9.5-3
		c2.2-2.5,3.6-7.5,3.6-12.8c0-5.8-1.7-11.1-4.3-13.4c-2.1-1.8-4.5-2.5-8.9-2.5h-10.4L202,196.9L202,196.9z"/>
	<path class="st0" d="M115.4,230.5v15.3h-9.9c-5.2,0-7.4-0.6-9.7-2.8c-2.4-2.3-3.4-5.5-3.4-10.4c0-5.9,1.6-9.8,4.9-11.8
		c2-1.2,4.2-1.7,8.4-1.7h9.7v3.4h-9.3c-3.5,0-4.4,0.2-5.8,1c-2.3,1.4-3.4,4.3-3.4,8.7c0,3.4,0.4,5.4,1.6,7.2c1.5,2.3,3.2,3,7.6,3h5
		v-8.5h-8.2v-3.4L115.4,230.5L115.4,230.5z"/>
	<path class="st0" d="M144.7,232.5c0,4.9-1.2,8.4-3.6,10.6c-2.3,2-5.6,3.1-9.5,3.1c-4.4,0-7.9-1.4-10-3.9c-1.7-2.1-2.8-5.9-2.8-9.8
		c0-4,1.1-7.7,3-9.8c2.2-2.6,5.7-4,10.2-4C140.7,218.7,144.7,223.1,144.7,232.5z M123.4,232.4c0,7.2,2.6,10.4,8.5,10.4
		c3.7,0,6.2-1.3,7.4-3.9c0.6-1.3,1-3.8,1-6.3c0-3.1-0.6-5.9-1.4-7.4c-1.3-2.1-3.6-3.2-6.8-3.2C126.1,222.1,123.4,225.2,123.4,232.4z
		"/>
</g>
</svg>
