<?xml version="1.0" encoding="utf-8"?>
<!-- Generator: Adobe Illustrator 24.3.0, SVG Export Plug-In . SVG Version: 6.00 Build 0)  -->
<svg version="1.1" id="Ebene_1" xmlns="http://www.w3.org/2000/svg" xmlns:xlink="http://www.w3.org/1999/xlink" x="0px" y="0px"
	 viewBox="0 0 237.2 250.6" style="enable-background:new 0 0 237.2 250.6;" xml:space="preserve">
<style type="text/css">
	.st0{fill:#FFFFFF;}
</style>
<g id="Ebene_2">
</g>
<g>
	<g>
		<path class="st0" d="M31.5,76.2v13.9c1.8,2.1,3.8,3.9,5.9,5.5c0.3,0.3,0.7,0.5,1,0.7c0,0,0.1,0.1,0.2,0.1c2.6,1.8,5.5,3.3,8.5,4.4
			V76.2H31.5z"/>
	</g>
	<g>
		<path class="st0" d="M88.2,56.4H72.6v44.4c1.3-0.4,2.6-0.9,3.9-1.4c2.1-0.9,6.6-3.4,11.7-6.9V56.4z"/>
	</g>
	<path class="st0" d="M52,102.3c2.7,0.5,5.4,0.8,8.2,0.7c0.6,0,1.4-0.1,2.4-0.2c1.7-0.1,3.3-0.4,4.9-0.7V45H52V102.3z"/>
	<polygon class="st0" points="155.7,74.9 155.7,74.9 155.6,74.9 	"/>
	<polygon class="st0" points="120.3,41.9 120.4,41.9 120.4,41.9 	"/>
	<path class="st0" d="M198.3,15l-5.8,12.2c15,5.6,25.7,20.1,25.7,37c0,21.8-17.7,39.5-39.5,39.5c-4.8,0-9.4-0.9-13.6-2.4
		c-0.6-0.2-1.2-0.5-1.8-0.7c-0.3-0.1-0.6-0.2-0.8-0.4c-0.6-0.3-1.1-0.5-1.7-0.8c-0.3-0.2-0.6-0.3-0.9-0.5c-0.5-0.3-1.1-0.6-1.6-0.9
		c-0.3-0.2-0.6-0.4-0.8-0.5c-0.4-0.2-0.8-0.5-1.1-0.8c-0.2-0.1-0.3-0.2-0.5-0.3v0c0,0,0,0-0.1,0c-0.6,0.9-1.3,1.8-1.9,2.6
		c-2.6,3.2-5.4,6.2-6.8,7.7c0,0,0,0,0,0c-15.7,15.3-37.8,22.3-59.4,16.7c-2.3-0.6-4.4-1.3-6.6-2.1c5.8,5.2,12.7,9.1,20.5,11.1
		c20.1,5.3,41.1-3,55.7-19.7c6.6,2.9,13.9,4.6,21.5,4.6c29.2,0,52.9-23.7,52.9-52.9C231.7,41.9,217.9,22.8,198.3,15"/>
	<polygon class="st0" points="155.7,75 155.7,75 155.7,74.9 	"/>
	<polygon class="st0" points="120.4,42 120.5,42 120.5,42 	"/>
	<path class="st0" d="M161.6,45c4.7-2.7,9.3-6.3,13.7-11c9.8-10.4,15.4-22.7,16.4-34c-11.1,1.8-23.1,8.2-32.8,18.6
		c-4.4,4.7-7.7,9.5-10.1,14.4l-21-0.1l-8.4,9l18.3,2.2c0,0,0.9,3.9-4.8,8.9l9.7,9.1c4.6-6,8.5-5.3,8.5-5.3l3.4,18.1l8.4-9L161.6,45z
		"/>
	<path class="st0" d="M125.1,62c-1.4,1.5-17,18.8-22.7,23.9c-9.9,8.9-21.9,16-25.9,17.7c-4.5,1.8-9.5,3.1-14.6,3.6
		c-1.1,0.1-2,0.2-2.6,0.2c-8.4,0.3-16.3-2.3-22.9-6.8c-0.1,0-0.1-0.1-0.2-0.1c-0.4-0.3-0.7-0.5-1.1-0.8c-5.6-4.1-10-9.6-12.9-16
		c-0.1-0.2-0.2-0.3-0.2-0.5c0,0,0-0.1-0.1-0.1c-2-4.7-3.2-9.9-3.2-15.2c0-12.8,6.1-24.2,15.6-31.4c6.7-5.1,15-8.2,24-8.2
		c9.1,0,17.4,3.1,24.1,8.2c0.1-0.1,0.1-0.2,0.2-0.3c17-23.9,46-34.8,71.3-24.9c-5.3-4.3-11.4-7.5-18.3-9.2
		c-19.5-5.1-39.9,2.5-54.4,18.1c-6.9-3.4-14.7-5.3-22.9-5.3c-29.2,0-53,23.6-53,52.9c0,29,23.2,52.5,52.1,53
		c17.8,0.4,33.7-8.9,44.4-16.9c10.6-7.9,29.6-29,32.9-32.6c-4.3,1.6-8.2,2.5-11.6,2.8C123.1,70.9,123.8,66.7,125.1,62"/>
</g>
<g>
	<path class="st0" d="M40.1,205.7H22.9c-8.1,0-12.1-1.1-15.9-4.4c-4.6-4-7-11-7-20.1c0-10.9,3.8-18.9,10.4-22.3
		c3-1.5,7.9-2.4,13-2.4h16.7v8.8H24.6c-4.8,0-8.1,1.2-10.4,3.8c-1.7,2-2.7,5.9-2.7,11.2c0,7,1.5,12.1,4.2,14.4c2,1.6,5,2.4,9.2,2.4
		h15.1V205.7z"/>
	<path class="st0" d="M57.6,156.4V184c0.3,8.2,0.4,8.7,2.4,10.7c2,1.7,4.4,2.1,10.8,2.1h10.1v8.8H69.7c-9.7,0.1-13-0.7-17.2-3.9
		c-4.4-3.9-5.4-7.4-5.5-17.8v-27.7H57.6z"/>
	<path class="st0" d="M126.9,163.2c3.3,4,5.1,10.7,5.1,18.6c0,8.4-2.6,15.4-7.3,19.4c-3.7,3.1-9.5,4.9-16.4,4.9
		c-9.3,0-16.7-3-20.5-8.2c-3-4.1-4.6-9.7-4.6-16.5c0-9.2,2.4-16.3,7-20.1c3.8-3.3,10.1-5.2,17.3-5.2
		C116.2,156,123.2,158.6,126.9,163.2z M97.3,169.1c-1.6,2.4-2.4,6.4-2.4,11.8c0,11.5,4,16.8,12.9,16.8c8.7,0,12.7-5.3,12.7-16.7
		c0-11.5-3.9-16.7-12.7-16.7C103.1,164.4,99.4,166.1,97.3,169.1z"/>
	<path class="st0" d="M149.5,186c0,4.7,0.7,7,2.6,8.8c1.9,1.9,5.3,3,8.7,3c4.7,0,8.4-1.7,9.8-4.4c0.7-1.5,1-3.6,1-7.4v-29.6H182
		v29.1c0,7.6-1.6,12.4-5,15.5c-4,3.5-9.3,5.1-16.6,5.1c-7.6,0-13.1-1.6-16.7-5c-3.7-3.5-4.9-7.1-4.9-14.9v-29.8h10.5V186z"/>
	<path class="st0" d="M212.5,156.4c9.9,0,15.5,1.8,19.5,6.4c3.2,3.6,5.3,10.8,5.3,18.4c0,4.1-0.7,8.9-1.9,12.6
		c-1.9,5.9-5.4,9.5-11.2,11c-2.6,0.7-5.3,1-11.6,1h-20.9v-49.4H212.5z M202,196.9h10.4c4.4,0,7.8-1.1,9.5-3
		c2.2-2.5,3.6-7.5,3.6-12.8c0-5.8-1.7-11.1-4.3-13.4c-2.1-1.8-4.5-2.5-8.9-2.5H202V196.9z"/>
	<path class="st0" d="M22.4,219.1c5.4,0,7.6,0.6,9.8,2.8c2.4,2.4,3.6,5.7,3.6,10.3c0,5.9-1.6,10-4.8,12c-2,1.3-3.6,1.6-8.1,1.6H12.1
		v-26.7H22.4z M16.4,242.3h6.8c3.1,0,5.1-0.8,6.3-2.6c1.1-1.6,1.7-4,1.7-7c0-3.3-0.7-6.2-1.9-7.9s-3-2.4-6.4-2.4h-6.5V242.3z"/>
	<path class="st0" d="M59.2,222.5h-7.8c-5.3-0.2-7.9,2.4-8.2,8.2h15.9v3.4h-16c0.1,5.6,3,8.6,8,8.3h8v3.4h-8.8c-4.6,0-7.1-1-9.1-3.4
		c-1.9-2.4-2.8-5.3-2.8-9.4c0-5.3,1.4-9.1,4.4-11.6c1.9-1.6,4.5-2.3,8.7-2.3h7.5V222.5z"/>
	<path class="st0" d="M83,222.5h-7.8c-5.3-0.2-7.9,2.4-8.2,8.2H83v3.4H67c0.1,5.6,3,8.6,8,8.3h8v3.4h-8.8c-4.6,0-7.1-1-9.1-3.4
		c-1.9-2.4-2.8-5.3-2.8-9.4c0-5.3,1.4-9.1,4.4-11.6c1.9-1.6,4.5-2.3,8.7-2.3H83V222.5z"/>
	<path class="st0" d="M92,245.7h-4.3v-26.7h11.8c3.7,0,5.4,0.5,7.1,2c1.6,1.5,2.4,3.6,2.4,6.4c0,2.9-1,5.4-2.8,6.9
		c-1.4,1.2-3.6,1.7-7.5,1.7H92V245.7z M99,232.7c2.1,0,3.3-0.4,4.2-1.2c0.8-0.8,1.3-2.4,1.3-4.1c0-1.6-0.5-2.9-1.3-3.8
		c-0.8-0.8-2-1.1-4.3-1.1H92v10.2H99z"/>
	<path class="st0" d="M130,247.3v3.4h-20v-3.4H130z"/>
	<path class="st0" d="M146.6,245.7h-5.1l-11.4-26.7h4.9l9.1,22.7l9.2-22.7h4.6L146.6,245.7z"/>
	<path class="st0" d="M160.8,219.1h4.3v26.7h-4.3V219.1z"/>
	<path class="st0" d="M189.9,222.5h-7.8c-5.3-0.2-7.9,2.4-8.2,8.2h15.9v3.4h-16c0.1,5.6,3,8.6,8,8.3h8v3.4h-8.8
		c-4.6,0-7.1-1-9.1-3.4c-1.9-2.4-2.8-5.3-2.8-9.4c0-5.3,1.4-9.1,4.4-11.6c1.9-1.6,4.5-2.3,8.7-2.3h7.5V222.5z"/>
	<path class="st0" d="M201.9,241.4l5.4-22.4h5.3l5.4,22.4l4.9-22.4h4.5l-6.8,26.7h-5.4l-5.2-21.7l-5.5,21.7H199l-6.6-26.7h4.6
		L201.9,241.4z"/>
</g>
</svg>
