<?xml version="1.0" encoding="utf-8"?>
<!-- Generator: Adobe Illustrator 24.2.3, SVG Export Plug-In . SVG Version: 6.00 Build 0)  -->
<svg version="1.1" xmlns="http://www.w3.org/2000/svg" xmlns:xlink="http://www.w3.org/1999/xlink" x="0px" y="0px"
	 viewBox="0 0 352.7 352.7" style="enable-background:new 0 0 352.7 352.7;" xml:space="preserve">
<style type="text/css">
	.st0{fill:none;}
	.st1{fill:#244A9A;}
	.st2{font-family:'HandelGotD-Bol';}
	.st3{font-size:74px;}
	.st4{fill:#C6C6C6;}
	.st5{font-family:'HandelGotD-Lig';}
	.st6{font-size:40px;}
	.st7{fill:#C7C6C6;}
	.st8{fill:#274B9A;}
	.st9{fill:#C8C7C7;}
	.st10{fill:#FFFFFF;}
</style>
<g id="Ebene_1">
	<g id="Ebene_2">
		<rect x="28.3" y="207.6" class="st0" width="297.9" height="110.1"/>
		<text transform="matrix(1 0 0 1 55.7864 256.9649)"><tspan x="0" y="0" class="st1 st2 st3">CLOUD</tspan><tspan x="70.8" y="40" class="st4 st5 st6">TUBE</tspan></text>
	</g>
</g>
<g id="Ebene_3">
	<g>
		<path class="st7" d="M228.4,154.9c-1.8-0.4-3.6-0.9-5.4-1.5c-0.6-0.2-1.2-0.5-1.8-0.7c-0.3-0.1-0.6-0.2-0.8-0.4
			c-0.6-0.3-1.1-0.5-1.7-0.8c-0.3-0.2-0.6-0.3-0.9-0.5c-0.5-0.3-1.1-0.6-1.6-0.9c-0.3-0.2-0.6-0.4-0.8-0.5c-0.4-0.2-0.8-0.5-1.1-0.8
			c-0.2-0.1-0.3-0.2-0.5-0.3c0,0,0,0-0.1,0c-0.6,0.9-1.3,1.8-1.9,2.6c-2.6,3.2-5.4,6.2-6.8,7.7c-15.7,15.3-37.8,22.3-59.4,16.7
			c-2.3-0.6-4.4-1.3-6.6-2.1c5.8,5.2,12.7,9.1,20.5,11.1c20.1,5.3,41.1-3,55.7-19.7c5.4,2.4,11.2,3.9,17.3,4.4
			C230.2,164.9,228.7,160.1,228.4,154.9z"/>
		<path class="st7" d="M276.1,116.3c0,0.9,0,1.9-0.1,2.8c4.7,1.8,9,4.5,12.5,8c0.7-3.4,1.1-6.9,1.1-10.6c0-22.5-13.9-41.6-33.4-49.4
			l-5.8,12.2C265.4,84.9,276.1,99.4,276.1,116.3z"/>
	</g>
	<path class="st8" d="M213.5,127h0.1H213.5z"/>
	<path class="st8" d="M178.2,94L178.2,94L178.2,94z"/>
	<polygon class="st8" points="213.6,127.1 213.6,127.1 213.5,127 	"/>
	<path class="st8" d="M178.3,94.1L178.3,94.1L178.3,94.1z"/>
	<path class="st8" d="M219.5,97.1c4.7-2.7,9.3-6.3,13.7-11c9.8-10.4,15.4-22.7,16.4-34c-11.1,1.8-23.1,8.2-32.8,18.6
		c-4.4,4.7-7.7,9.5-10.1,14.4l-21-0.1l-8.4,9l18.3,2.2c0,0,0.9,3.9-4.8,8.9l9.7,9.1c4.6-6,8.5-5.3,8.5-5.3l3.4,18.1l8.4-9
		L219.5,97.1z"/>
	<path class="st8" d="M183,114.1c-1.4,1.5-17,18.8-22.7,23.9c-9.9,8.9-21.9,16-25.9,17.7c-4.5,1.8-9.5,3.1-14.6,3.6
		c-1.1,0.1-2,0.2-2.6,0.2c-8.4,0.3-16.3-2.3-22.9-6.8c-0.1,0-0.1-0.1-0.2-0.1c-0.4-0.3-0.7-0.5-1.1-0.8c-5.6-4.1-10-9.6-12.9-16
		c-0.1-0.2-0.2-0.3-0.2-0.5c0,0,0-0.1-0.1-0.1c-2-4.7-3.2-9.9-3.2-15.2c0-12.8,6.1-24.2,15.6-31.4c6.7-5.1,15-8.2,24-8.2
		c9.1,0,17.4,3.1,24.1,8.2c0.1-0.1,0.1-0.2,0.2-0.3c17-23.9,46-34.8,71.3-24.9c-5.3-4.3-11.4-7.5-18.3-9.2
		c-19.5-5.1-39.9,2.5-54.4,18.1c-6.8-3.4-14.6-5.3-22.8-5.3c-29.2,0-53,23.6-53,52.9c0,29,23.2,52.5,52.1,53
		c17.8,0.4,33.7-8.9,44.4-16.9c10.6-7.9,29.6-29,32.9-32.6c-4.3,1.6-8.2,2.5-11.6,2.8C181,123,181.6,118.8,183,114.1"/>
	<circle class="st9" cx="263.7" cy="152.3" r="29.5"/>
	<g>
		<path class="st10" d="M253,141c0-2.1,1.5-3,3.3-2l20.8,11.4c1.8,1,1.8,2.6,0,3.6l-20.8,11.4c-1.8,1-3.3,0.1-3.3-2L253,141z"/>
	</g>
</g>
</svg>
