<svg id="Ebene_1" data-name="Ebene 1" xmlns="http://www.w3.org/2000/svg" viewBox="0 0 570 380"><defs><style>.cls-1{fill:#c6c6c6;}.cls-2{fill:#244a9a;}</style></defs><path class="cls-1" d="M167.94,123.34v18.85a51.93,51.93,0,0,0,8,7.46,8,8,0,0,0,1.36.95c.14,0,.14.14.27.14a52.09,52.09,0,0,0,11.53,6V123.34Z"/><path class="cls-1" d="M244.84,96.49H223.68v60.08c1.77-.54,3.53-1.22,5.29-1.9a111.09,111.09,0,0,0,15.87-9.36Z"/><path class="cls-1" d="M195.74,158.74a44.07,44.07,0,0,0,11.13.95c.81,0,1.89-.14,3.25-.27a52.44,52.44,0,0,0,6.65-.95V81h-21Z"/><path class="cls-1" d="M394.16,40.34l-7.87,16.55a53.56,53.56,0,0,1-18.71,103.75,54.81,54.81,0,0,1-18.45-3.26c-.81-.27-1.63-.67-2.44-.95a4.65,4.65,0,0,1-1.22-.54c-.81-.41-1.49-.68-2.31-1.08a6,6,0,0,1-1.22-.68c-.67-.41-1.49-.82-2.17-1.22-.4-.27-.81-.54-1.08-.68a5.84,5.84,0,0,1-1.49-1.09,1.31,1.31,0,0,1-.68-.54h-.14c-.81,1.22-1.76,2.44-2.57,3.53-3.53,4.34-7.33,8.41-9.23,10.31h0c-21.29,20.75-51.26,30.24-80.55,22.64-3-.81-6-1.76-9-2.84a66.22,66.22,0,0,0,27.81,15c27.26,7.19,55.74-4.07,75.54-26.58A72.58,72.58,0,0,0,367.58,179,71.88,71.88,0,0,0,394.16,40.34"/><path class="cls-2" d="M344.38,81A79.7,79.7,0,0,0,363,66.11C376.26,52,383.85,35.33,385.21,20c-15.06,2.44-31.33,11.12-44.49,25.23A80.13,80.13,0,0,0,327,64.75l-28.49-.13L287.15,76.69l24.82,3s1.22,5.16-6.51,12.07l13.16,12.34c6.24-8.13,11.52-7.18,11.52-7.18l4.62,24.54,11.39-12.07Z"/><path class="cls-2" d="M294.88,104.08c-1.9,2-23.05,25.5-30.78,32.42-13.43,12.07-29.7,21.7-35.13,24a71.58,71.58,0,0,1-19.8,4.88c-1.49.14-2.71.28-3.53.28a51.73,51.73,0,0,1-31-9.23c-.14,0-.14-.13-.27-.13-.55-.41-.95-.68-1.5-1.09a53.26,53.26,0,0,1-17.35-21.7c-.14-.27-.28-.4-.28-.67,0,0,0-.14-.13-.14a52.75,52.75,0,0,1,16.82-63.2,53.39,53.39,0,0,1,65.23,0c.13-.13.13-.27.27-.41,23.06-32.27,62.25-47.19,96.7-33.76a63.3,63.3,0,0,0-24.69-12.48c-26.58-6.92-54.11,3.39-73.77,24.55a71.78,71.78,0,1,0-32.28,136.43c24.14.54,45.7-12.07,60.21-22.92s40.15-39.33,44.62-44.21a60.75,60.75,0,0,1-15.73,3.79c-.27-4.34.68-10,2.44-16.41"/><path class="cls-2" d="M179.61,299H156.28c-11,0-16.41-1.49-21.56-6-6.24-5.42-9.5-14.91-9.5-27.26,0-14.78,5.16-25.63,14.11-30.38,4.07-2,10.71-3.25,17.63-3.25h22.65V244h-21c-6.51,0-11,1.63-14.1,5.16-2.31,2.71-3.66,8-3.66,15.19,0,9.49,2,16.41,5.69,19.53,2.72,2.17,6.79,3.25,12.48,3.25h20.48l.14,11.8Z"/><path class="cls-2" d="M203.34,232.11v37.57c.41,11.12.54,11.8,3.25,14.51,2.72,2.3,6,2.85,14.65,2.85h13.7V299H219.75c-13.16.14-17.5-1-23.33-5.29-6-5.29-7.32-10-7.46-24.14V232l14.38.14Z"/><path class="cls-2" d="M297.32,241.33c4.48,5.43,6.92,14.51,6.92,25.23,0,11.39-3.53,20.88-9.76,26.31-5,4.2-12.89,6.64-22.25,6.64-12.47,0-22.51-4.07-27.8-11.12-4.07-5.56-6.24-13.15-6.24-22.37,0-12.48,3.26-22.11,9.5-27.26,5.29-4.48,13.69-7.06,23.46-7.06C282.81,231.57,292.31,235.09,297.32,241.33Zm-40.14,8c-2.17,3.26-3.25,8.68-3.25,16,0,15.59,5.42,22.78,17.49,22.78,11.8,0,17.22-7.05,17.22-22.51S283.36,243,271.42,243C265.05,243,260,245.27,257.18,249.33Z"/><path class="cls-2" d="M328,272.25c0,6.38.95,9.5,3.53,11.94s7.05,4.07,11.8,4.07c6.37,0,11.39-2.31,13.29-6,1-2,1.36-4.88,1.36-10V232.11h14.1v39.47c0,10.3-2.17,16.81-6.78,21-5.42,4.74-12.48,6.91-22.51,6.91-10.31,0-17.77-2.17-22.52-6.78-5-4.74-6.64-9.63-6.64-20.21V232.11h14.24l.13,40.14Z"/><path class="cls-2" d="M413.28,232.11c13.43,0,21,2.58,26.45,8.68,4.34,4.88,7,14.65,7,25a59.15,59.15,0,0,1-2.58,17.09c-2.58,8-7.32,12.89-15.19,14.92-3.52.95-7.19,1.36-15.73,1.36H384.93v-67ZM399.18,287h14.1c6,0,10.58-1.5,12.88-4.07,3-3.39,4.89-10.31,4.89-17.36,0-8-2.31-15.06-5.84-18.17-2.84-2.45-6.1-3.4-12.07-3.4h-14v43Z"/><path class="cls-1" d="M155.6,317.14c7.32,0,10.31.82,13.29,3.8,3.26,3.26,4.88,7.73,4.88,14,0,8-2.17,13.56-6.51,16.27-2.71,1.77-4.88,2.17-11,2.17H141.63V317.14Zm-8.14,31.47h9.23c4.2,0,6.91-1.09,8.54-3.53,1.49-2.17,2.31-5.42,2.31-9.49,0-4.48-.95-8.41-2.58-10.72s-4.07-3.25-8.68-3.25h-8.82Z"/><path class="cls-1" d="M205.51,321.76H194.93c-7.19-.28-10.71,3.25-11.12,11.12h21.56v4.61h-21.7c.14,7.59,4.07,11.66,10.85,11.25h10.85v4.61H193.44c-6.24,0-9.63-1.35-12.34-4.61s-3.8-7.18-3.8-12.74c0-7.19,1.9-12.35,6-15.74,2.57-2.17,6.1-3.12,11.8-3.12h10.17C205.51,317.14,205.51,321.76,205.51,321.76Z"/><path class="cls-1" d="M237.79,321.76H227.21c-7.19-.28-10.72,3.25-11.12,11.12h21.7v4.61h-21.7c.13,7.59,4.07,11.66,10.85,11.25h10.85v4.61H225.85c-6.24,0-9.63-1.35-12.34-4.61s-3.8-7.18-3.8-12.74c0-7.19,1.9-12.35,6-15.74,2.58-2.17,6.1-3.12,11.8-3.12h10.31Z"/><path class="cls-1" d="M250,353.22h-5.83V317h16c5,0,7.33.68,9.63,2.71s3.26,4.88,3.26,8.68-1.36,7.32-3.8,9.36c-1.9,1.63-4.88,2.3-10.17,2.3H250v13.16Zm9.5-17.63c2.84,0,4.47-.54,5.69-1.63s1.77-3.25,1.77-5.56a7.59,7.59,0,0,0-1.77-5.15c-1.08-1.09-2.71-1.49-5.83-1.49H250v13.83Z"/><path class="cls-1" d="M301.53,355.39V360H274.4v-4.61Z"/><path class="cls-1" d="M324,353.22h-6.92L301.66,317h6.65l12.34,30.78L333.13,317h6.24Z"/><path class="cls-1" d="M343.3,317.14h5.83v36.21H343.3Z"/><path class="cls-1" d="M382.77,321.76H372.19c-7.19-.28-10.72,3.25-11.12,11.12h21.56v4.61h-21.7c.14,7.59,4.07,11.66,10.85,11.25h10.85v4.61H370.69c-6.23,0-9.62-1.35-12.34-4.61s-3.79-7.18-3.79-12.74c0-7.19,1.89-12.35,6-15.74,2.58-2.17,6.11-3.12,11.8-3.12h10.17l.28,4.62Z"/><path class="cls-1" d="M399,347.39,406.36,317h7.19l7.32,30.38L427.52,317h6.1l-9.22,36.21h-7.32L410,323.79l-7.45,29.43h-7.46L386.16,317h6.23Z"/></svg>