<svg id="Ebene_1" data-name="Ebene 1" xmlns="http://www.w3.org/2000/svg" viewBox="0 0 570 380"><defs><style>.cls-1{fill:#244a9a;}.cls-2{fill:#c6c6c6;}.cls-3{fill:#c7c6c6;stroke:#fff;stroke-miterlimit:10;stroke-width:6.93px;}.cls-4{fill:#fff;}</style></defs><g id="Ebene_2" data-name="Ebene 2"><path class="cls-1" d="M236.37,249.21c4.57,5.54,7.07,14.82,7.07,25.77,0,11.64-3.61,21.34-10.12,26.88-5.13,4.29-13.16,6.79-22.72,6.79-12.89,0-23.14-4.16-28.4-11.37-4.16-5.68-6.38-13.43-6.38-22.86,0-12.74,3.33-22.58,9.7-27.84,5.27-4.58,14-7.21,24-7.21C221.54,239.23,231.24,242.83,236.37,249.21Zm-41,8.17c-2.22,3.33-3.33,8.87-3.33,16.35,0,15.93,5.55,23.28,17.88,23.28,12.05,0,17.59-7.35,17.59-23.14s-5.4-23.14-17.59-23.14C203.39,250.87,198.27,253.23,195.36,257.38Z"/><path class="cls-1" d="M268.1,308.23H253.55V239.79h34.08c11.64,0,15.94,1.24,20.37,5.82A23.61,23.61,0,0,1,314.51,262c0,6.93-2.63,13.58-7.2,17.6-4,3.6-7.9,4.71-15.94,4.71H268.1Zm19.81-36.16c3.74,0,6-.56,7.48-1.8,1.94-1.53,3.19-5,3.19-8.87,0-4.43-1.8-7.62-4.85-8.87-1.25-.55-2.91-.69-5.54-.69H268.1v20.09h19.81Z"/><path class="cls-1" d="M323.93,296h31.18c5.26,0,8.17-.42,10-1.53a7,7,0,0,0,3.6-6.37,8,8,0,0,0-4.15-7.2c-1.53-1-4.16-1.39-7.62-1.39H344.3c-7.9,0-13.16-1.38-16.77-4.16A20.11,20.11,0,0,1,320.61,260c0-8.46,4.57-15.94,11.22-18.57,3.32-1.25,6.93-1.66,15.24-1.66h33.81V252H350.26c-6.38,0-8.73.14-10.39,1-2.22,1.25-3.33,3.46-3.33,6.51a7.28,7.28,0,0,0,3,6.24c1.8,1.1,4.15,1.52,9.42,1.52H360c9.83,0,15.1,1.39,19.11,5.26,3.33,3.19,5.55,9.29,5.55,15.52,0,7.07-3.19,13.58-8.18,17-3.46,2.36-7.76,3-18.29,3H323.79V296Z"/><path class="cls-2" d="M200.21,358.94h15.93c5.54,0,7.76-1.66,7.76-5.68,0-2.77-1.11-4.71-3.19-5.27a23.18,23.18,0,0,0-5.68-.41H212c-4.43,0-7.2-.56-9.14-1.8a9.09,9.09,0,0,1-3.88-7.9,11,11,0,0,1,5-9.42c2.08-1.25,4.71-1.66,9.28-1.66h15.24v4.71H213.23c-3.32,0-4.71.27-6,1.1a5.4,5.4,0,0,0-2.07,4.58c0,3.74,2.21,5.12,8,5.12h2.22c6.23,0,8.87.56,10.94,1.94a11.14,11.14,0,0,1,3.88,8.87c0,4.16-1.8,7.48-5.12,9.14-2.22,1.11-4.3,1.39-9.7,1.39H200.21Z"/><path class="cls-2" d="M232.21,331.37v-4.71h31.45v4.71H250.92v32.28h-6V331.37Z"/><path class="cls-2" d="M274.61,326.66h7.76l14.68,37h-6.23l-3.74-9.7H269.62l-3.88,9.7h-6.23Zm-3.33,22.58h13.86l-6.79-18.15Z"/><path class="cls-2" d="M327.26,363.65h-11.5c-6.65,0-10.39-1.11-13.3-3.88-3.19-3-5-8.45-5-14.41,0-6.65,2.49-13,6.37-15.93,2.5-1.94,6.1-2.77,11.64-2.77h11.78v4.71h-11.5c-5,0-7.21.69-8.87,2.77-1.94,2.35-3.05,6.65-3.05,11.5,0,4.43,1.11,8.17,3.19,10.53s4.16,2.91,9.28,2.91h10.95v4.57Z"/><path class="cls-2" d="M338.06,363.65h-5.95v-37h5.95Zm17.74-37H363l-18.7,17.87,19.81,19.12h-7.9l-18.28-18.84Z"/></g><path class="cls-2" d="M389.88,44.43l-8,16.91a54.72,54.72,0,0,1-19.12,106A56.1,56.1,0,0,1,343.88,164c-.83-.28-1.66-.69-2.49-1a2.89,2.89,0,0,1-1.11-.55c-.83-.42-1.52-.7-2.35-1.11-.42-.28-.84-.42-1.25-.69-.69-.42-1.53-.84-2.22-1.25a9.59,9.59,0,0,0-1.11-.69,6.53,6.53,0,0,1-1.52-1.11c-.28-.14-.42-.28-.69-.42H331c-.83,1.25-1.8,2.5-2.63,3.6-3.61,4.44-7.49,8.59-9.43,10.67h0c-21.75,21.2-52.37,30.9-82.29,23.14-3.19-.83-6.1-1.8-9.15-2.91a67.71,67.71,0,0,0,28.4,15.38c27.85,7.34,57-4.16,77.18-27.29a74.17,74.17,0,0,0,29.78,6.37,73.48,73.48,0,0,0,27-141.74"/><polygon class="cls-1" points="330.86 127.56 330.86 127.56 330.72 127.42 330.86 127.56"/><path class="cls-1" d="M339,86a81.86,81.86,0,0,0,19-15.24c13.57-14.41,21.33-31.45,22.72-47.11-15.38,2.49-32,11.36-45.45,25.77a82.08,82.08,0,0,0-14,20l-29.1-.14L280.57,81.7l25.35,3s1.25,5.4-6.65,12.33l13.44,12.61c6.37-8.31,11.78-7.34,11.78-7.34l4.71,25.07L340.84,115Z"/><path class="cls-1" d="M288.46,109.55c-1.94,2.08-23.55,26.05-31.45,33.11-13.71,12.33-30.34,22.17-35.88,24.53a74.69,74.69,0,0,1-20.23,5c-1.52.14-2.77.28-3.6.28A52.79,52.79,0,0,1,165.57,163c-.14,0-.14-.14-.28-.14-.55-.41-1-.69-1.52-1.11a55.88,55.88,0,0,1-17.87-22.16c-.14-.28-.28-.42-.28-.7a.14.14,0,0,0-.14-.14,53.9,53.9,0,0,1,17.18-64.56,54.55,54.55,0,0,1,66.64,0c.14-.14.14-.28.28-.42,23.55-33.11,63.73-48.21,98.79-34.49A64.46,64.46,0,0,0,303,26.56c-27-7.07-55.28,3.46-75.37,25.08a70.67,70.67,0,0,0-31.59-7.35A73.37,73.37,0,0,0,194.8,191c24.67.55,46.7-12.33,61.52-23.42,14.69-10.94,41-40.18,45.58-45.16a62.8,62.8,0,0,1-16.07,3.88,55.11,55.11,0,0,1,2.63-16.77"/><circle class="cls-3" cx="400.27" cy="162.34" r="47.11"/><path class="cls-4" d="M373,155.55c-1.8-1.8-1.66-3.6,0-5l24.38-14.27c1.8-1.25,3.19-1.25,4.85,0l24.39,14.27c1.94,1.66,1.66,3.46,0,5l-24.39,14.27a4.15,4.15,0,0,1-4.85,0Zm29.65,21.2a4.78,4.78,0,0,1-5.54,0L372,162.34c-.56,1.11-.28,2.35,1,3.74l24.38,14.27a4.15,4.15,0,0,0,4.85,0l24.39-14.27c1.24-1.11,1.8-2.36,1-3.74Zm0,10.53a4.78,4.78,0,0,1-5.54,0L372,172.87c-.56,1.11-.28,2.35,1,3.74l24.38,14.27a4.15,4.15,0,0,0,4.85,0l24.39-14.27c1.24-1.11,1.8-2.36,1-3.74Z"/></svg>