<svg width="86" height="52" xmlns="http://www.w3.org/2000/svg" xmlns:xlink="http://www.w3.org/1999/xlink" overflow="hidden"><defs><clipPath id="clip0"><rect x="961" y="445" width="86" height="52"/></clipPath><clipPath id="clip1"><path d="M961.249 452.615 1042.69 445.406 1046.53 488.832 965.093 496.041Z" fill-rule="evenodd" clip-rule="evenodd"/></clipPath><clipPath id="clip2"><path d="M961.249 452.615 1042.69 445.406 1046.53 488.832 965.093 496.041Z" fill-rule="evenodd" clip-rule="evenodd"/></clipPath><clipPath id="clip3"><path d="M926.712 455.672 1073.66 442.664 1079.7 510.832 932.747 523.84Z" fill-rule="evenodd" clip-rule="evenodd"/></clipPath></defs><g clip-path="url(#clip0)" transform="translate(-961 -445)"><g clip-path="url(#clip1)"><g clip-path="url(#clip2)"><g clip-path="url(#clip3)"><path d="M4.36205 67.358C3.56002 67.0879 2.86029 66.6501 2.25468 66.0445 1.65316 65.443 1.17849 64.6491 0.834763 63.663 0.491037 62.6768 0.315082 61.4738 0.315082 60.0457 0.315082 58.6216 0.486945 57.4145 0.834763 56.4283 1.17849 55.4422 1.65316 54.6483 2.25468 54.0468 2.8562 53.4453 3.56002 53.0075 4.36205 52.7333 5.16407 52.4632 6.0193 52.3241 6.93181 52.3241L12.6647 52.3241 12.6647 54.9716 7.36965 54.9716C6.82542 54.9716 6.30983 55.0534 5.82697 55.213 5.34003 55.3767 4.91856 55.6509 4.55846 56.0396 4.19837 56.4283 3.91602 56.948 3.71142 57.5946 3.50682 58.2411 3.40452 59.0554 3.40452 60.0416 3.40452 61.0277 3.50682 61.842 3.71142 62.4886 3.91602 63.1351 4.19837 63.6548 4.55846 64.0435 4.91856 64.4323 5.34003 64.7105 5.82697 64.8701 6.31392 65.0338 6.82542 65.1115 7.36965 65.1115L12.6606 65.1115 12.6606 67.759 6.93181 67.759C6.0193 67.7631 5.16407 67.6281 4.36205 67.358Z" transform="matrix(0.996114 -0.0881742 0.0881734 0.996105 926.747 455.669)"/><path d="M14.8661 52.3323 17.9515 52.3323 17.9515 61.5924C17.9515 62.2676 18.0538 62.8323 18.2584 63.2783 18.463 63.7284 18.7453 64.0885 19.1054 64.3586 19.4655 64.6328 19.887 64.8251 20.3739 64.9438 20.8609 65.0624 21.3724 65.1197 21.9166 65.1197L25.8858 65.1197 25.8858 67.7672 21.9166 67.7672C20.9468 67.7672 20.0343 67.6649 19.1832 67.4603 18.3321 67.2557 17.5832 66.9079 16.9449 66.425 16.3065 65.9422 15.7991 65.3038 15.4227 64.5182 15.0462 63.7325 14.8621 62.7586 14.8621 61.5965L14.8621 52.3323Z" transform="matrix(0.996114 -0.0881742 0.0881734 0.996105 926.747 455.669)"/><path d="M26.7288 60.0497C26.7288 58.5644 26.9252 57.3081 27.3139 56.281 27.7027 55.254 28.2346 54.4233 28.9139 53.789 29.5891 53.1589 30.3829 52.7006 31.2954 52.4223 32.2079 52.1441 33.1818 52.0049 34.2294 52.0049 35.2442 52.0049 36.2058 52.1441 37.1183 52.4223 38.0308 52.7006 38.8288 53.1589 39.5121 53.789 40.1955 54.4192 40.7356 55.2499 41.1325 56.281 41.5295 57.3081 41.7259 58.5685 41.7259 60.0497 41.7259 61.5351 41.5254 62.7914 41.1325 63.8185 40.7356 64.8455 40.1955 65.6762 39.5121 66.3105 38.8288 66.9406 38.0308 67.3989 37.1183 67.6772 36.2058 67.9555 35.2442 68.0946 34.2294 68.0946 33.1859 68.0946 32.2079 67.9555 31.2954 67.6772 30.3829 67.3989 29.5891 66.9406 28.9139 66.3105 28.2387 65.6803 27.7027 64.8496 27.3139 63.8185 26.9211 62.7914 26.7288 61.531 26.7288 60.0497ZM34.2212 65.4512C34.8227 65.4512 35.3915 65.3652 35.9316 65.1975 36.4677 65.0297 36.9342 64.7392 37.3311 64.3259 37.728 63.9167 38.0431 63.3602 38.2804 62.6604 38.5137 61.9607 38.6323 61.0932 38.6323 60.0497 38.6323 59.0063 38.5137 58.1347 38.2804 57.4391 38.0431 56.7393 37.728 56.1869 37.3311 55.7736 36.9342 55.3603 36.4677 55.0739 35.9316 54.902 35.3956 54.7343 34.8268 54.6483 34.2212 54.6483 33.6033 54.6483 33.0263 54.7343 32.4903 54.902 31.9542 55.0698 31.4878 55.3603 31.0908 55.7736 30.6939 56.1869 30.3829 56.7393 30.1538 57.4391 29.9246 58.1388 29.8141 59.0063 29.8141 60.0497 29.8141 61.0932 29.9287 61.9648 30.1538 62.6604 30.3829 63.3602 30.6939 63.9126 31.0908 64.3259 31.4878 64.7392 31.9542 65.0297 32.4903 65.1975 33.0263 65.3652 33.6033 65.4512 34.2212 65.4512Z" transform="matrix(0.996114 -0.0881742 0.0881734 0.996105 926.747 455.669)"/><path d="M43.4813 52.3323 46.5667 52.3323 46.5667 61.3715C46.5667 62.1489 46.669 62.7996 46.8736 63.3233 47.0782 63.8471 47.3605 64.2645 47.7206 64.5796 48.0807 64.8946 48.4981 65.1197 48.9769 65.2506 49.4556 65.3816 49.9712 65.4512 50.5318 65.4512 51.076 65.4512 51.5875 65.3857 52.0622 65.2506 52.541 65.1197 52.9584 64.8946 53.3184 64.5796 53.6785 64.2645 53.965 63.843 54.1778 63.3233 54.3905 62.8036 54.4969 62.153 54.4969 61.3715L54.4969 52.3323 57.5823 52.3323 57.5823 61.3715C57.5823 62.6482 57.3941 63.7202 57.0217 64.5796 56.6452 65.4389 56.1419 66.1304 55.4995 66.6501 54.8611 67.1739 54.1123 67.5422 53.2612 67.7631 52.41 67.9841 51.4975 68.0946 50.5277 68.0946 49.5579 68.0946 48.6413 67.9841 47.782 67.7631 46.9227 67.5422 46.1739 67.1698 45.5314 66.6501 44.8931 66.1304 44.3898 65.4389 44.0215 64.5796 43.6532 63.7202 43.4691 62.6522 43.4691 61.3715L43.4691 52.3323Z" transform="matrix(0.996114 -0.0881742 0.0881734 0.996105 926.747 455.669)"/><path d="M60.017 52.3323 67.5135 52.3323C68.426 52.3323 69.2812 52.4673 70.0833 52.7415 70.8853 53.0156 71.585 53.4494 72.1906 54.055 72.7922 54.6565 73.2668 55.4504 73.6146 56.4365 73.9584 57.4227 74.1343 58.6257 74.1343 60.0538 74.1343 61.4778 73.9625 62.685 73.6146 63.6712 73.2709 64.6573 72.7962 65.4512 72.1906 66.0527 71.5891 66.6542 70.8853 67.092 70.0833 67.3662 69.2812 67.6404 68.426 67.7754 67.5135 67.7754L60.017 67.7754 60.017 52.3323ZM67.0716 65.1197C67.6158 65.1197 68.1314 65.0379 68.6143 64.8783 69.1012 64.7187 69.5227 64.4404 69.8828 64.0517 70.2429 63.663 70.5252 63.1433 70.7298 62.4967 70.9344 61.8502 71.0367 61.0359 71.0367 60.0497 71.0367 59.0636 70.9344 58.2493 70.7298 57.6027 70.5252 56.9562 70.2429 56.4365 69.8828 56.0478 69.5227 55.6591 69.1012 55.3849 68.6143 55.2212 68.1314 55.0575 67.6158 54.9798 67.0716 54.9798L63.1024 54.9798 63.1024 65.1197 67.0716 65.1197Z" transform="matrix(0.996114 -0.0881742 0.0881734 0.996105 926.747 455.669)"/><path d="M79.4948 67.358C78.6928 67.0879 77.9931 66.6501 77.3875 66.0445 76.7859 65.443 76.3113 64.6491 75.9675 63.663 75.6238 62.6768 75.4479 61.4738 75.4479 60.0457 75.4479 58.6216 75.6197 57.4145 75.9675 56.4283 76.3113 55.4422 76.7859 54.6483 77.3875 54.0468 77.989 53.4453 78.6928 53.0075 79.4948 52.7333 80.2968 52.4632 81.1521 52.3241 82.0646 52.3241L87.7974 52.3241 87.7974 54.9716 82.5065 54.9716C82.0237 54.9716 81.5654 55.033 81.1398 55.1598 80.7142 55.2867 80.3296 55.4913 79.9818 55.7777 79.638 56.0642 79.3434 56.4447 79.102 56.9235 78.8606 57.4022 78.6928 57.9997 78.6069 58.7199L87.8015 58.7199 87.8015 61.3633 78.6069 61.3633C78.6969 62.0835 78.8606 62.6809 79.102 63.1597 79.3434 63.6384 79.638 64.019 79.9818 64.3054 80.3255 64.5918 80.7142 64.7964 81.1398 64.9233 81.5654 65.0501 82.0237 65.1115 82.5065 65.1115L87.7974 65.1115 87.7974 67.759 82.0646 67.759C81.148 67.7631 80.2928 67.6281 79.4948 67.358Z" transform="matrix(0.996114 -0.0881742 0.0881734 0.996105 926.747 455.669)"/><path d="M94.541 54.9798 89.0291 54.9798 89.0291 52.3323 103.138 52.3323 103.138 54.9798 97.6264 54.9798 97.6264 67.7672 94.541 67.7672 94.541 54.9798Z" transform="matrix(0.996114 -0.0881742 0.0881734 0.996105 926.747 455.669)"/><path d="M107.754 67.358C106.952 67.0879 106.252 66.6501 105.647 66.0445 105.045 65.443 104.57 64.6491 104.227 63.663 103.883 62.6768 103.707 61.4738 103.707 60.0457 103.707 58.6216 103.879 57.4145 104.227 56.4283 104.57 55.4422 105.045 54.6483 105.647 54.0468 106.248 53.4453 106.952 53.0075 107.754 52.7333 108.556 52.4632 109.411 52.3241 110.324 52.3241L116.057 52.3241 116.057 54.9716 110.766 54.9716C110.283 54.9716 109.825 55.033 109.399 55.1598 108.973 55.2867 108.589 55.4913 108.241 55.7777 107.897 56.0642 107.603 56.4447 107.361 56.9235 107.12 57.4022 106.952 57.9997 106.866 58.7199L116.061 58.7199 116.061 61.3633 106.866 61.3633C106.956 62.0835 107.12 62.6809 107.361 63.1597 107.603 63.6384 107.897 64.019 108.241 64.3054 108.585 64.5918 108.973 64.7964 109.399 64.9233 109.825 65.0501 110.283 65.1115 110.766 65.1115L116.057 65.1115 116.057 67.759 110.324 67.759C109.411 67.7631 108.556 67.6281 107.754 67.358Z" transform="matrix(0.996114 -0.0881742 0.0881734 0.996105 926.747 455.669)"/><path d="M122.084 67.358C121.282 67.0879 120.582 66.6501 119.977 66.0445 119.375 65.443 118.901 64.6491 118.557 63.663 118.213 62.6768 118.037 61.4738 118.037 60.0457 118.037 58.6216 118.209 57.4145 118.557 56.4283 118.901 55.4422 119.375 54.6483 119.977 54.0468 120.578 53.4453 121.282 53.0075 122.084 52.7333 122.886 52.4632 123.741 52.3241 124.654 52.3241L130.387 52.3241 130.387 54.9716 125.096 54.9716C124.613 54.9716 124.155 55.033 123.729 55.1598 123.304 55.2867 122.919 55.4913 122.571 55.7777 122.227 56.0642 121.933 56.4447 121.691 56.9235 121.45 57.4022 121.282 57.9997 121.196 58.7199L130.391 58.7199 130.391 61.3633 121.196 61.3633C121.286 62.0835 121.45 62.6809 121.691 63.1597 121.933 63.6384 122.227 64.019 122.571 64.3054 122.915 64.5918 123.304 64.7964 123.729 64.9233 124.155 65.0501 124.613 65.1115 125.096 65.1115L130.387 65.1115 130.387 67.759 124.654 67.759C123.741 67.7631 122.886 67.6281 122.084 67.358Z" transform="matrix(0.996114 -0.0881742 0.0881734 0.996105 926.747 455.669)"/><path d="M133.03 52.3323 142.18 52.3323C142.855 52.3323 143.493 52.4141 144.099 52.5737 144.7 52.7374 145.232 52.9952 145.687 53.3553 146.141 53.7154 146.497 54.1941 146.755 54.7875 147.012 55.3808 147.139 56.1051 147.139 56.9603 147.139 57.7091 147.049 58.3598 146.873 58.9122 146.697 59.4646 146.452 59.9311 146.137 60.3116 145.822 60.6922 145.445 60.995 145.011 61.216 144.578 61.4369 144.111 61.5965 143.612 61.6988L147.119 67.7631 143.547 67.7631 140.285 61.8093 136.12 61.8093 136.12 67.7631 133.034 67.7631 133.034 52.3323ZM142.18 59.1659C142.695 59.1659 143.133 59.0063 143.502 58.6912 143.87 58.3761 144.054 57.7992 144.054 56.9603 144.054 56.2237 143.87 55.7122 143.502 55.4176 143.133 55.123 142.691 54.9757 142.18 54.9757L136.115 54.9757 136.115 59.1659 142.18 59.1659Z" transform="matrix(0.996114 -0.0881742 0.0881734 0.996105 926.747 455.669)"/><path d="M99.5619 5.01267 97.7287 8.8755C102.504 10.6514 105.904 15.2508 105.904 20.644 105.904 27.5758 100.286 33.1982 93.3503 33.1982 91.8239 33.1982 90.3672 32.924 89.0168 32.4248 88.8204 32.3512 88.624 32.2734 88.4317 32.1916 88.3417 32.1547 88.2516 32.1138 88.1616 32.0729 87.9816 31.9911 87.8056 31.9051 87.6338 31.8151 87.5396 31.766 87.4455 31.7169 87.3555 31.6678 87.1877 31.5737 87.02 31.4796 86.8563 31.3814 86.7663 31.3282 86.6762 31.2668 86.5903 31.2136 86.4675 31.1358 86.3489 31.054 86.2302 30.9722 86.177 30.9353 86.1197 30.8985 86.0665 30.8617 86.0665 30.8617 86.0665 30.8617 86.0665 30.8658 86.0583 30.8617 86.0543 30.8576 86.0461 30.8535 85.8497 31.1399 85.6451 31.4141 85.4364 31.6883 84.6221 32.699 83.7259 33.6565 83.2799 34.1189 83.2799 34.1189 83.284 34.1189 83.284 34.123 78.3081 38.9761 71.274 41.2144 64.4036 39.4221 63.6875 39.2339 62.9919 39.0047 62.3126 38.7428 64.1581 40.396 66.3473 41.6236 68.8188 42.266 75.2187 43.9396 81.8763 41.3167 86.5207 36.0217 88.6076 36.9546 90.9237 37.4743 93.3584 37.4743 102.647 37.4743 110.176 29.9451 110.176 20.6563 110.168 13.5485 105.773 7.48422 99.5619 5.01267Z" transform="matrix(0.996114 -0.0881742 0.0881734 0.996105 926.747 455.669)"/><path d="M86.0215 24.0567 86.0256 24.0567 86.0051 24.0404Z" transform="matrix(0.996114 -0.0881742 0.0881734 0.996105 926.747 455.669)"/><path d="M74.8341 13.5895 74.8218 13.5731 74.8177 13.5731Z" transform="matrix(0.996114 -0.0881742 0.0881734 0.996105 926.747 455.669)"/><path d="M87.8956 14.5429C89.4015 13.6754 90.8623 12.5296 92.2577 11.0361 95.3553 7.72565 97.1353 3.80963 97.479 0.241427 93.9395 0.818395 90.1503 2.8562 87.0527 6.16661 85.6573 7.66018 84.6057 9.19058 83.8446 10.7537L77.1665 10.721 74.5026 13.5649 80.3255 14.2687C80.3255 14.2687 80.6078 15.4922 78.8115 17.0881L81.9009 19.977C83.374 18.0824 84.6139 18.2789 84.6139 18.2789L85.7064 24.0445 88.3703 21.2005 87.8956 14.5429Z" transform="matrix(0.996114 -0.0881742 0.0881734 0.996105 926.747 455.669)"/><path d="M76.3072 19.9443C75.8734 20.4271 70.9017 25.9186 69.093 27.5431 65.9545 30.3625 62.1489 32.6335 60.8559 33.1532 59.4278 33.7261 57.8524 34.1516 56.2237 34.2908 55.8759 34.3358 55.5977 34.3562 55.4013 34.3603 52.7292 34.4544 50.2085 33.6401 48.1135 32.2038 48.0971 32.1916 48.0766 32.1793 48.0603 32.167 47.9457 32.0852 47.827 32.0074 47.7165 31.9215 45.9447 30.6243 44.5289 28.8771 43.6327 26.8434 43.6082 26.7902 43.5836 26.737 43.5591 26.6797 43.555 26.6674 43.5468 26.651 43.5427 26.6388 42.9003 25.137 42.5402 23.4961 42.5402 21.7939 42.5443 17.7264 44.4839 14.1173 47.4833 11.8258 49.5988 10.2013 52.2463 9.2315 55.1189 9.2315 57.9997 9.2315 60.6513 10.2054 62.7709 11.8381 62.7914 11.8094 62.8118 11.7849 62.8364 11.7562 68.2296 4.17791 77.4366 0.695636 85.4855 3.83418 83.7955 2.47974 81.8518 1.46493 79.6871 0.896143 73.4796-0.732464 67.0225 1.6818 62.3985 6.65765 60.193 5.58964 57.7214 4.98812 55.1107 4.98403 45.8219 4.97584 38.2845 12.4969 38.2763 21.7857 38.2682 30.9885 45.6542 38.4646 54.8243 38.6119 60.4876 38.7265 65.533 35.7721 68.9375 33.235 72.3052 30.7226 78.345 24.0322 79.3762 22.8782 78.0135 23.3775 76.7614 23.6844 75.6934 23.7539 75.6606 22.7555 75.8775 21.442 76.3072 19.9443Z" transform="matrix(0.996114 -0.0881742 0.0881734 0.996105 926.747 455.669)"/></g></g></g></g></svg>